<svg width="262" height="26" fill="none" xmlns="http://www.w3.org/2000/svg"><path d="M19.42 3.01 13.62 0C7.88 2.06 0 11.46 0 11.46l5.43 3.04C13.04 4.99 19.43 3 19.43 3ZM38.96 3.62l-6-3.45s-2.92 3.05-10.48 6.65c-7.55 3.6-12.57 10.1-12.57 10.1l5.33 3.01s2.36-3.52 11.15-8c8.8-4.47 12.57-8.31 12.57-8.31ZM35.14 13.08c-9.91 4.56-14.63 9.6-14.63 9.6l5.53 2.95c2.97-2.97 9.92-6.45 16.02-9.06 6.1-2.62 12.1-8.86 12.1-8.86 4.52 2.5 10.06.05 10.06.05L51.66.8C48 5.12 45.06 8.53 35.14 13.08ZM72 6.88h7.31v18.76h8.53V6.88h7.35V.25H72v6.63ZM95.9 12.93c0 7.57 5.96 13.07 14.16 13.07s14.15-5.54 14.15-13.07c0-7.5-5.96-12.93-14.15-12.93-8.2 0-14.16 5.4-14.16 12.93Zm8.75.03c0-3.47 2.54-5.97 5.52-5.97 2.94 0 5.29 2.5 5.29 5.97 0 3.48-2.35 6.05-5.3 6.05-2.93 0-5.5-2.57-5.5-6.05ZM126.4 12.96c0 7.54 5.89 13.04 13.97 13.04 3.68 0 8.42-1.38 11.29-3.26V12.28h-7.32v5.9c-1.25.5-2.5.83-3.38.83-3.34 0-5.8-2.53-5.8-6.05 0-3.44 2.42-5.97 5.73-5.97a9.87 9.87 0 0 1 6.36 2.68l4.81-5.76C149.31 1.52 144.93 0 140.93 0c-8.42 0-14.52 5.47-14.52 12.96ZM154.65 12.93c0 7.57 5.95 13.07 14.15 13.07s14.15-5.54 14.15-13.07c0-7.5-5.96-12.93-14.15-12.93-8.2 0-14.16 5.4-14.16 12.93Zm8.74.03c0-3.47 2.54-5.97 5.52-5.97 2.94 0 5.29 2.5 5.29 5.97 0 3.48-2.35 6.05-5.3 6.05-2.93 0-5.5-2.57-5.5-6.05ZM183.67 6.88h7.31v18.76h8.53V6.88h7.35V.25h-23.2v6.63ZM207.57 12.93c0 7.57 5.96 13.07 14.15 13.07 8.2 0 14.15-5.54 14.15-13.07 0-7.5-5.95-12.93-14.15-12.93s-14.15 5.4-14.15 12.93Zm8.75.03c0-3.47 2.53-5.97 5.51-5.97 2.94 0 5.3 2.5 5.3 5.97 0 3.48-2.36 6.05-5.3 6.05s-5.51-2.57-5.51-6.05ZM239.36 25.64h8.52v-6.6h3.57c6.7 0 10.55-3.54 10.55-9.7 0-5.8-3.86-9.09-10.55-9.09h-12.1v25.39Zm8.52-12.97V6.63h3.13c1.84 0 2.9 1.08 2.9 2.97 0 1.95-1.06 3.07-2.9 3.07h-3.13Z" fill="#fff"/></svg>